<?xml version="1.0" encoding="UTF-8"?>
<svg width="800px" height="600px" viewBox="0 0 800 600" version="1.1" xmlns="http://www.w3.org/2000/svg" xmlns:xlink="http://www.w3.org/1999/xlink">
    <title>Financial Tools</title>
    <defs>
        <linearGradient x1="0%" y1="0%" x2="100%" y2="100%" id="linearGradient-1">
            <stop stop-color="#004085" offset="0%"></stop>
            <stop stop-color="#0069d9" offset="100%"></stop>
        </linearGradient>
        <linearGradient x1="0%" y1="0%" x2="100%" y2="100%" id="linearGradient-2">
            <stop stop-color="#28a745" offset="0%"></stop>
            <stop stop-color="#20c997" offset="100%"></stop>
        </linearGradient>
    </defs>
    <g id="Financial-Tools" stroke="none" stroke-width="1" fill="none" fill-rule="evenodd">
        <rect fill="#FFFFFF" x="0" y="0" width="800" height="600"></rect>
        <g id="Background" transform="translate(50.000000, 50.000000)">
            <rect id="Rectangle" fill="url(#linearGradient-1)" opacity="0.1" x="0" y="0" width="700" height="500" rx="20"></rect>
        </g>
        <g id="Calculator" transform="translate(100.000000, 150.000000)">
            <rect id="Body" fill="#004085" x="0" y="0" width="200" height="300" rx="15"></rect>
            <rect id="Screen" fill="#FFFFFF" x="20" y="20" width="160" height="60" rx="5"></rect>
            <text id="123,456" font-family="Arial-BoldMT, Arial" font-size="24" font-weight="bold" fill="#004085">
                <tspan x="70" y="60">123,456</tspan>
            </text>
            <g id="Buttons" transform="translate(20.000000, 100.000000)">
                <rect id="Button-1" fill="#FFFFFF" x="0" y="0" width="30" height="30" rx="5"></rect>
                <rect id="Button-2" fill="#FFFFFF" x="40" y="0" width="30" height="30" rx="5"></rect>
                <rect id="Button-3" fill="#FFFFFF" x="80" y="0" width="30" height="30" rx="5"></rect>
                <rect id="Button-4" fill="#FFFFFF" x="120" y="0" width="30" height="30" rx="5"></rect>
                <rect id="Button-5" fill="#FFFFFF" x="0" y="40" width="30" height="30" rx="5"></rect>
                <rect id="Button-6" fill="#FFFFFF" x="40" y="40" width="30" height="30" rx="5"></rect>
                <rect id="Button-7" fill="#FFFFFF" x="80" y="40" width="30" height="30" rx="5"></rect>
                <rect id="Button-8" fill="#FFFFFF" x="120" y="40" width="30" height="30" rx="5"></rect>
                <rect id="Button-9" fill="#FFFFFF" x="0" y="80" width="30" height="30" rx="5"></rect>
                <rect id="Button-10" fill="#FFFFFF" x="40" y="80" width="30" height="30" rx="5"></rect>
                <rect id="Button-11" fill="#FFFFFF" x="80" y="80" width="30" height="30" rx="5"></rect>
                <rect id="Button-12" fill="#FFFFFF" x="120" y="80" width="30" height="30" rx="5"></rect>
                <rect id="Button-13" fill="#FFFFFF" x="0" y="120" width="30" height="30" rx="5"></rect>
                <rect id="Button-14" fill="#FFFFFF" x="40" y="120" width="30" height="30" rx="5"></rect>
                <rect id="Button-15" fill="#FFFFFF" x="80" y="120" width="30" height="30" rx="5"></rect>
                <rect id="Button-16" fill="#FFFFFF" x="120" y="120" width="30" height="30" rx="5"></rect>
            </g>
        </g>
        <g id="Chart" transform="translate(350.000000, 150.000000)">
            <rect id="Background" fill="#FFFFFF" x="0" y="0" width="350" height="300" rx="15"></rect>
            <rect id="Border" stroke="#004085" stroke-width="3" x="1.5" y="1.5" width="347" height="297" rx="15"></rect>
            <line x1="50" y1="250" x2="300" y2="250" id="X-Axis" stroke="#004085" stroke-width="2" stroke-linecap="round"></line>
            <line x1="50" y1="50" x2="50" y2="250" id="Y-Axis" stroke="#004085" stroke-width="2" stroke-linecap="round"></line>
            <path d="M50,200 C83.3333333,180 116.666667,120 150,120 C183.333333,120 216.666667,80 250,80 C283.333333,80 300,50 300,50" id="Line-Chart" stroke="url(#linearGradient-2)" stroke-width="3" stroke-linecap="round"></path>
            <circle id="Point-1" fill="#28a745" cx="50" cy="200" r="5"></circle>
            <circle id="Point-2" fill="#28a745" cx="150" cy="120" r="5"></circle>
            <circle id="Point-3" fill="#28a745" cx="250" cy="80" r="5"></circle>
            <circle id="Point-4" fill="#28a745" cx="300" cy="50" r="5"></circle>
            <g id="Bars" transform="translate(75.000000, 150.000000)">
                <rect id="Bar-1" fill="url(#linearGradient-1)" opacity="0.7" x="0" y="0" width="30" height="100" rx="2"></rect>
                <rect id="Bar-2" fill="url(#linearGradient-1)" opacity="0.7" x="50" y="-30" width="30" height="130" rx="2"></rect>
                <rect id="Bar-3" fill="url(#linearGradient-1)" opacity="0.7" x="100" y="-50" width="30" height="150" rx="2"></rect>
                <rect id="Bar-4" fill="url(#linearGradient-1)" opacity="0.7" x="150" y="-80" width="30" height="180" rx="2"></rect>
            </g>
        </g>
        <g id="Coins" transform="translate(150.000000, 480.000000)">
            <circle id="Coin-1" fill="#FFC107" cx="0" cy="20" r="20"></circle>
            <circle id="Coin-2" fill="#FFC107" cx="30" cy="20" r="20"></circle>
            <circle id="Coin-3" fill="#FFC107" cx="60" cy="20" r="20"></circle>
            <text id="$" font-family="Arial-BoldMT, Arial" font-size="24" font-weight="bold" fill="#FFFFFF">
                <tspan x="0" y="28">$</tspan>
            </text>
            <text id="$" font-family="Arial-BoldMT, Arial" font-size="24" font-weight="bold" fill="#FFFFFF">
                <tspan x="30" y="28">$</tspan>
            </text>
            <text id="$" font-family="Arial-BoldMT, Arial" font-size="24" font-weight="bold" fill="#FFFFFF">
                <tspan x="60" y="28">$</tspan>
            </text>
        </g>
    </g>
</svg>
